<svg width="77" height="62" viewBox="0 0 77 62" fill="none" xmlns="http://www.w3.org/2000/svg">
<path d="M15.4 46.5H46.2V44.3687C46.2 40.5583 44.3879 38.0241 40.7638 36.766C37.1371 35.5053 33.8158 34.875 30.8 34.875C27.7842 34.875 24.4642 35.5053 20.84 36.766C17.2134 38.0241 15.4 40.5583 15.4 44.3687V46.5ZM30.8 31C32.9175 31 34.7309 30.2405 36.2401 28.7215C37.7467 27.2051 38.5 25.3813 38.5 23.25C38.5 21.1187 37.7467 19.2936 36.2401 17.7746C34.7309 16.2582 32.9175 15.5 30.8 15.5C28.6825 15.5 26.8704 16.2582 25.3638 17.7746C23.8546 19.2936 23.1 21.1187 23.1 23.25C23.1 25.3813 23.8546 27.2051 25.3638 28.7215C26.8704 30.2405 28.6825 31 30.8 31ZM7.7 62C5.5825 62 3.77043 61.2418 2.2638 59.7254C0.7546 58.2064 0 56.3812 0 54.25V7.75C0 5.61875 0.7546 3.79492 2.2638 2.2785C3.77043 0.759499 5.5825 0 7.7 0H53.9C56.0175 0 57.8308 0.759499 59.34 2.2785C60.8467 3.79492 61.6 5.61875 61.6 7.75V25.1875L73.7275 12.9812C74.305 12.4 74.9954 12.254 75.7988 12.5434C76.5996 12.8353 77 13.4333 77 14.3375V47.6625C77 48.5667 76.5996 49.1634 75.7988 49.4527C74.9954 49.7447 74.305 49.6 73.7275 49.0187L61.6 36.8125V54.25C61.6 56.3812 60.8467 58.2064 59.34 59.7254C57.8308 61.2418 56.0175 62 53.9 62H7.7ZM7.7 54.25H53.9V7.75H7.7V54.25Z" fill="#D4D4D4"/>
</svg>
